<svg xmlns="http://www.w3.org/2000/svg" width="454" height="168" style="shape-rendering:geometricPrecision;text-rendering:geometricPrecision;image-rendering:optimizeQuality;fill-rule:evenodd;clip-rule:evenodd"><path fill="#090a0c" d="M297.5 3.5a84.94 84.94 0 0 1 13 .5 6.977 6.977 0 0 1 3.5 2.5 54.643 54.643 0 0 0 2 7c.175 15.574.675 31.074 1.5 46.5a394.658 394.658 0 0 1 22-2 25.634 25.634 0 0 1 6-6c14.01-.394 28.01-.06 42 1a21.741 21.741 0 0 1 7 6.5 80.744 80.744 0 0 1 10-6.5 370.48 370.48 0 0 1 41-1c.916.374 1.75.874 2.5 1.5 1.926 7.627 1.926 15.294 0 23l-20.5 27a583.08 583.08 0 0 1 17.5 23c1.674 6.698 1.674 13.364 0 20a6.978 6.978 0 0 1-2.5 3.5 219.522 219.522 0 0 1-41 1 25.807 25.807 0 0 1-7.5-2.5 25.807 25.807 0 0 1-7.5 2.5c-12 .667-24 .667-36 0-2.871-.131-5.205-1.297-7-3.5a439.983 439.983 0 0 0-55 0 212.499 212.499 0 0 1-41-4 140.71 140.71 0 0 1-30 3.5 191.455 191.455 0 0 1-2.5 12.5c-7.612 5.033-15.446 5.2-23.5.5a233.986 233.986 0 0 0-15-10.5c-.241 5.363-2.908 8.53-8 9.5-12.724.92-25.39.586-38-1-3.034-4.652-4.368-9.818-4-15.5-17.332 5.869-34.332 5.203-51-2-4.695 2.676-9.695 4.843-15 6.5-5.873.951-11.54.285-17-2A1468.621 1468.621 0 0 1 23 87.5c-1.066-3.063-3.233-4.563-6.5-4.5L13 79.5c-5.52-10.722-8.687-22.055-9.5-34l.5-9A9.47 9.47 0 0 1 5.5 34c22.382-9.73 45.715-13.397 70-11 17.212 4.04 25.545 14.874 25 32.5h14a108.085 108.085 0 0 1 3.5-22 6.977 6.977 0 0 1 2.5-3.5c10.716-5.869 22.05-9.702 34-11.5 6.468-1.682 10.634.651 12.5 7a45.98 45.98 0 0 1 2 10c.625 10.336 1.292 20.67 2 31 .388.928 1.055 1.595 2 2a75.488 75.488 0 0 1 20.5-.5c-4.792-9.187-5.292-18.687-1.5-28.5A240.847 240.847 0 0 1 220.5 23a72.496 72.496 0 0 1 17 0c5.687 6.525 10.52 13.692 14.5 21.5 1.566 5.522 1.733 11.022.5 16.5l1.5.5a41.612 41.612 0 0 1 15-6l1-31c.23-3.79 1.563-7.123 4-10a729.683 729.683 0 0 1 23.5-11Z" style="opacity:.127"/><path fill="#3b69b4" d="M401.5 143.5a6.547 6.547 0 0 0-3-3c-.212-1.884-1.212-3.217-3-4a55.05 55.05 0 0 1-6 6.5 840.27 840.27 0 0 1-41 .5c-.841-1.879-1.175-3.879-1-6a938.402 938.402 0 0 1-90 .5c-3.174-.94-6.007-2.44-8.5-4.5a76.328 76.328 0 0 1-17.5 5h-20a62.792 62.792 0 0 1-1 15.5c-5 .667-10 .667-15 0L172 136.5a113.601 113.601 0 0 1-1.5 14.5 400.05 400.05 0 0 1-40 0c-.65-6.778-1.317-13.611-2-20.5a173.55 173.55 0 0 0-4 3 175.679 175.679 0 0 1-10 3.5c-9.333.667-18.667.667-28 0-4.882-1.606-8.882-4.439-12-8.5l-13 9.5a145.05 145.05 0 0 1-17 .5 2263.921 2263.921 0 0 0-21.5-62c-2.456-1.821-5.29-2.488-8.5-2a285.179 285.179 0 0 0-7.5-22 64.25 64.25 0 0 1 0-16C28.559 25.59 51.392 21.758 75.5 25c16.765 5.012 23.098 16.178 19 33.5a156.343 156.343 0 0 1 23-1c-.543-8.551.457-16.884 3-25a212.283 212.283 0 0 1 25-11.5 72.496 72.496 0 0 1 17 0 357.686 357.686 0 0 1 3 52.5c3.016-.34 5.682-1.507 8-3.5a205.917 205.917 0 0 1 23 0 39.394 39.394 0 0 0 6-4.5c-8.831-6.496-11.497-15.162-8-26a622.892 622.892 0 0 1 26-14.5 64.247 64.247 0 0 1 16 0A161.595 161.595 0 0 1 249 42.5c.667 5 .667 10 0 15-2.52.707-5.02 1.54-7.5 2.5a107.619 107.619 0 0 0 11 3.5 130.798 130.798 0 0 1 14-5.5 32.438 32.438 0 0 1 8-.5 441.816 441.816 0 0 1 1-42l19-8.5a162.44 162.44 0 0 1 18-.5 1729.208 1729.208 0 0 0 2 58 95.565 95.565 0 0 1 9-3.5 220.94 220.94 0 0 1 21-.5c-.256-2.292.077-4.46 1-6.5 14.378-.77 28.711-.27 43 1.5a56.902 56.902 0 0 0 7.5 8 25.257 25.257 0 0 0 6.5-8c14.853-2.066 29.687-2.4 44.5-1 .667 5 .667 10 0 15a347.108 347.108 0 0 0-23.5 31 197.867 197.867 0 0 0 19.5 26 64.218 64.218 0 0 1 0 16 436.59 436.59 0 0 1-41.5 1Z" style="opacity:1"/><path fill="#fdde33" d="M305.5 59.5c-.166 9.006 0 18.006.5 27 .717-.544 1.217-1.21 1.5-2 1.72-3.231 4.053-6.064 7-8.5 13.742-8.783 28.076-9.783 43-3a22.763 22.763 0 0 1 5 4 1105.91 1105.91 0 0 1-29 34c3.185.388 6.185-.279 9-2a32.497 32.497 0 0 0 10-10.5 452.912 452.912 0 0 0 13 15.5c-5.099 7.392-12.099 12.059-21 14-12.01 3.976-23.677 3.31-35-2l-2.5-2.5a24.935 24.935 0 0 0-.5 7 196.329 196.329 0 0 0-24 1c.219-1.175-.114-2.175-1-3-12.142 4.7-22.308 2.033-30.5-8-14.648 9.72-30.314 12.054-47 7a373.876 373.876 0 0 1-.5 19 2741.8 2741.8 0 0 0-40.5-29c.082 8.652.248 17.319.5 26h-26a748.326 748.326 0 0 0-1-37 18.453 18.453 0 0 0-.5-6 10.134 10.134 0 0 0-1.5 4c-7.251 18.727-20.918 26.894-41 24.5-9.954-3.707-15.787-10.874-17.5-21.5-2.246-19.658 5.92-33.158 24.5-40.5 13.776-3.52 24.942.314 33.5 11.5.12-8.995-.047-17.995-.5-27a41.58 41.58 0 0 0-8 1 54.28 54.28 0 0 1 3-13.5 446.797 446.797 0 0 1 27-10.5c1.21 20.364 2.71 40.697 4.5 61A613.414 613.414 0 0 1 180.5 78c6.307.58 12.64 1.414 19 2.5 6.504-5.317 13.837-9.15 22-11.5 11.927-2.018 22.594.648 32 8a1105.91 1105.91 0 0 1-29 34c3.185.388 6.185-.279 9-2a32.497 32.497 0 0 0 10-10.5 4.458 4.458 0 0 1 1.5 2c1.621-16.3 10.121-27.468 25.5-33.5a37.096 37.096 0 0 1 12-1.5c-.167-14.004 0-28.004.5-42l21-10a618.205 618.205 0 0 1 1.5 46Z" style="opacity:1"/><path fill="#fbdd35" d="M227.5 32.5c1.322-.17 2.489.163 3.5 1A422.585 422.585 0 0 0 241.5 50a820.35 820.35 0 0 1-33.5 7.5c-2.949-2.908-4.949-6.241-6-10a1034.043 1034.043 0 0 1 25.5-15Z" style="opacity:1"/><path fill="#fcdd34" d="M49.5 32.5c8.847-.626 17.514.207 26 2.5 8.7 3.979 11.866 10.479 9.5 19.5a81.706 81.706 0 0 1-8 13c-5.667 7-12 13.333-19 19a236.807 236.807 0 0 0 8.5 34.5 163.163 163.163 0 0 1-14 10.5 4222.535 4222.535 0 0 0-25-69l-5 4a478.804 478.804 0 0 1-9-23 278.56 278.56 0 0 1 36-11Z" style="opacity:1"/><path fill="#426eb6" d="M54.5 54.5c11.65-2.217 13.817 1.116 6.5 10a84.714 84.714 0 0 0-7.5 8 3.646 3.646 0 0 1-1.5-1A347.148 347.148 0 0 1 48.5 59c1.473-2.233 3.473-3.733 6-4.5Z" style="opacity:1"/><path fill="#fdde33" d="M352.5 61.5a722.747 722.747 0 0 0 29 1.5 594.098 594.098 0 0 0 14 18.5 410.735 410.735 0 0 0 15-18.5 177.72 177.72 0 0 1 29-1 1663.802 1663.802 0 0 0-30 38.5l26 34a122.079 122.079 0 0 1-27 .5 145.45 145.45 0 0 0-13-15.5 268.53 268.53 0 0 0-12 15.5c-9.333.667-18.667.667-28 0a1300.458 1300.458 0 0 0 26-34.5 1399.494 1399.494 0 0 1-29-39Z" style="opacity:1"/><path fill="#446eb5" d="M110.5 75.5a8.435 8.435 0 0 1 4 .5c-5.243 3.371-6.243 7.704-3 13 6.116-.094 9.949-3.26 11.5-9.5 1.428 7.717-.739 14.217-6.5 19.5-6.939 2.901-12.772 1.401-17.5-4.5-1.075-4.358-.408-8.358 2-12a89.667 89.667 0 0 1 9.5-7Z" style="opacity:1"/><path fill="#889389" d="m305.5 59.5 2 25c-.283.79-.783 1.456-1.5 2-.5-8.994-.666-17.994-.5-27Z" style="opacity:1"/><path fill="#3f6db7" d="M278.5 76.5a4.932 4.932 0 0 1 3 .5c-2.765 2.995-3.598 6.495-2.5 10.5a7.248 7.248 0 0 0 2.5 2 36.877 36.877 0 0 1 1 12c-10.854-.018-15.354-5.351-13.5-16 2.406-3.909 5.572-6.909 9.5-9Z" style="opacity:1"/><path fill="#436eb5" d="M219.5 84.5a21.347 21.347 0 0 1 9 1.5 141.06 141.06 0 0 1-16 18.5c-3.848-8.95-1.515-15.616 7-20ZM328.5 84.5a21.347 21.347 0 0 1 9 1.5 141.06 141.06 0 0 1-16 18.5c-3.848-8.95-1.515-15.616 7-20Z" style="opacity:1"/><path fill="#436eb6" d="M195.5 87.5c.543.06.876.393 1 1-4.919 10.032-5.253 20.198-1 30.5-7.333-4.2-14.333-9.2-21-15a188.73 188.73 0 0 0 21-16.5Z" style="opacity:1"/><path fill="#8f9884" d="m136.5 106.5-2-2a10.134 10.134 0 0 1 1.5-4c.495 1.973.662 3.973.5 6Z" style="opacity:1"/><path fill="#242425" d="M124.5 133.5h4v4a510.314 510.314 0 0 1-17 4.5c-7 .667-14 .667-21 0-5.582-1.147-10.582-3.313-15-6.5-3.588 1.557-6.921 3.724-10 6.5a72.464 72.464 0 0 1-17 0l-1-1 12-1c-5.184-.174-10.184-.674-15-1.5a145.05 145.05 0 0 0 17-.5l13-9.5c3.118 4.061 7.118 6.894 12 8.5 9.333.667 18.667.667 28 0a175.679 175.679 0 0 0 10-3.5Z" style="opacity:1"/><path fill="#1c1c1b" d="M348.5 143.5a832.355 832.355 0 0 0 41 1.5 138.557 138.557 0 0 1-23 1.5l-21-1a4.457 4.457 0 0 0-2-1.5 620.09 620.09 0 0 0-55 .5 1353.416 1353.416 0 0 1-30-1.5 81.203 81.203 0 0 0-11-3.5 312.926 312.926 0 0 1-33 4c-.929-1.189-1.262-2.522-1-4 6.19.323 12.19-.01 18-1a76.328 76.328 0 0 0 17.5-5c2.493 2.06 5.326 3.56 8.5 4.5a938.402 938.402 0 0 0 90-.5c-.175 2.121.159 4.121 1 6Z" style="opacity:.442"/><path fill="#262625" d="M398.5 140.5a6.547 6.547 0 0 1 3 3c12.506.667 25.173 1.333 38 2a4.457 4.457 0 0 1-2 1.5c-12 .667-24 .667-36 0a64.95 64.95 0 0 0-8-5.5c1.291-3.36 2.957-3.694 5-1Z" style="opacity:.977"/></svg>